<?xml version="1.0" encoding="iso-8859-1"?>
<!-- Uploaded to: SVG Repo, www.svgrepo.com, Generator: SVG Repo Mixer Tools -->
<svg fill="#000000" version="1.1" id="Capa_1" xmlns="http://www.w3.org/2000/svg" xmlns:xlink="http://www.w3.org/1999/xlink" 
	 viewBox="0 0 390 390" xml:space="preserve">
<g id="XMLID_1002_">
	<path id="XMLID_1003_" d="M57.5,0v30h-25v30h25v70h-25v30h25v70h-25v30h25v70h-25v30h25v30h300V0H57.5z M327.5,360h-240V30h240V360
		z"/>
	<rect id="XMLID_1006_" x="117.5" y="165" width="180" height="30"/>
	<rect id="XMLID_1007_" x="117.5" y="225" width="180" height="30"/>
	<rect id="XMLID_1008_" x="117.5" y="285" width="180" height="30"/>
	<polygon id="XMLID_1009_" points="182.779,135 207.5,122.002 232.221,135 227.5,107.471 247.5,87.977 219.861,83.96 207.5,58.915 
		195.139,83.96 167.5,87.977 187.5,107.471 	"/>
</g>
</svg>